<svg width="341" height="41" viewBox="0 0 341 41" fill="none" xmlns="http://www.w3.org/2000/svg">
<path fill-rule="evenodd" clip-rule="evenodd" d="M256.986 9.90175C209.308 5.79121 195.659 4.80045 169.108 3.5241C141.592 2.20139 121.864 1.63669 90.5098 1.27436C83.2412 1.19037 75.4656 1.0256 66.3569 0.762382C32.8967 -0.20457 26.3699 -0.230648 15.4463 0.558181C10.034 0.949217 5.36844 1.13065 2.77108 1.05161C0.461835 0.981135 0.0366094 1.03649 0.000194996 1.41217C-0.0319852 1.74417 3.60958 2.39075 5.63356 2.41228C6.35886 2.4202 8.32238 2.4576 9.99706 2.49581C11.6718 2.53382 15.3629 2.55799 18.1997 2.54946C24.8796 2.52908 28.0763 2.62835 39.4969 3.21073C58.696 4.18981 73.2168 4.74985 91.0763 5.20008C97.658 5.36592 106.397 5.58621 110.496 5.6895C141.585 6.47268 179.49 8.15804 202.595 9.78472C230.632 11.7584 317.514 19.522 315.995 19.9178C315.394 20.0748 305.305 20.6982 299.269 20.9516C293.725 21.1844 284.478 21.3991 273.114 21.5589C267.724 21.6348 260.326 21.7459 256.674 21.8057C242.955 22.0308 238.439 22.0753 230.658 22.063C194.812 22.0056 171.065 22.6815 137.907 24.7025C118.198 25.9036 101.945 27.9004 83.6884 31.3637C73.3085 33.3328 72.2743 33.761 73.0838 35.7549C73.6107 37.0522 78.6884 37.7059 89.0475 37.8098C107.979 38 125.743 38.4462 142.924 39.1629C153.701 39.6126 155.13 39.6514 166.118 39.7928C170.222 39.8458 177.307 40.0284 181.863 40.199L190.146 40.5091L179.219 39.2556C162.66 37.3561 144.865 35.6491 138.975 35.3953C119.474 34.5547 108.844 34.3322 91.4396 34.4002C87.2912 34.4164 83.7959 34.3839 83.6721 34.328C82.4786 33.7878 110.722 30.11 124.127 29.0601C154.388 26.6898 185.406 25.7393 232.934 25.7255C237.274 25.7242 245.995 25.6463 252.312 25.5525C258.63 25.4585 268.588 25.3117 274.442 25.2259C296.973 24.896 303.704 24.6121 325.476 23.0734C339.42 22.0879 339.495 22.0751 340.017 20.5886C340.59 18.9542 339.565 18.088 336.437 17.5657C333.465 17.0692 277.457 11.6666 256.986 9.90175ZM191.051 40.4262C191.305 40.5023 191.681 40.5367 191.885 40.5028C192.09 40.4688 191.882 40.4065 191.423 40.3644C190.964 40.3222 190.797 40.3501 191.051 40.4262Z" fill="white"/>
</svg>
